#N canvas 789 344 444 469 10;
#X obj 120 147 select 0 1 2 3;
#X obj 121 185 bng 15 250 50 0 empty empty empty 17 7 0 10 -262144
-1 -1;
#X obj 146 184 bng 15 250 50 0 empty empty empty 17 7 0 10 -262144
-1 -1;
#X obj 173 184 bng 15 250 50 0 empty empty empty 17 7 0 10 -262144
-1 -1;
#X obj 200 185 bng 15 250 50 0 empty empty empty 17 7 0 10 -262144
-1 -1;
#X obj 104 64 inlet;
#X floatatom 134 98 5 0 0 0 - - -;
#X obj 121 215 tabplay~ sample\$1;
#X obj 143 242 tabplay~ sample\$1;
#X obj 164 269 tabplay~ sample\$1;
#X obj 185 296 tabplay~ sample\$1;
#X obj 121 371 outlet~;
#X obj 120 332 *~ 1;
#X connect 0 0 1 0;
#X connect 0 1 2 0;
#X connect 0 2 3 0;
#X connect 0 3 4 0;
#X connect 1 0 7 0;
#X connect 2 0 8 0;
#X connect 3 0 9 0;
#X connect 4 0 10 0;
#X connect 5 0 0 0;
#X connect 5 0 6 0;
#X connect 7 0 12 0;
#X connect 8 0 12 0;
#X connect 9 0 12 0;
#X connect 10 0 12 0;
#X connect 12 0 11 0;
