#N canvas 1056 846 450 300 10;
#X obj 145 57 bng 15 250 50 0 empty empty empty 17 7 0 10 -262144 -1
-1;
#X obj 151 172 dac~ 1 2;
#X obj 146 111 tabplay~ sample\$1;
#X obj 157 236 outlet;
#X obj 219 43 inlet;
#X connect 0 0 2 0;
#X connect 2 0 1 0;
#X connect 4 0 2 0;
