#N canvas 489 359 450 300 10;
#X obj 88 90 mycounter;
#X obj 83 28 inlet;
#X floatatom 165 59 5 0 0 0 - - -;
#X obj 88 126 fuga \$1;
#X obj 91 181 outlet~;
#X connect 0 0 3 0;
#X connect 1 0 2 0;
#X connect 1 0 0 0;
#X connect 3 0 4 0;
