#N canvas 625 441 434 362 10;
#X obj 174 139 bng 15 250 50 0 empty empty empty 17 7 0 10 -262144
-1 -1;
#X obj 301 139 bng 15 250 50 0 empty empty empty 17 7 0 10 -262144
-1 -1;
#X obj 174 202 *~ 0.5;
#X obj 43 33 r chan1;
#X obj 47 141 bng 15 250 50 0 empty empty empty 17 7 0 10 -262144 -1
-1;
#X floatatom 67 63 5 0 0 0 - - -;
#X obj 46 99 select \$1 \$2 \$3;
#X obj 47 169 piyo \$1;
#X obj 174 167 piyo \$2;
#X obj 301 165 piyo \$3;
#X obj 193 325 dac~ \$4 \$5;
#X obj 186 37 inlet;
#X floatatom 236 73 5 0 0 0 - - -;
#X connect 0 0 8 0;
#X connect 1 0 9 0;
#X connect 2 0 10 0;
#X connect 2 0 10 1;
#X connect 3 0 5 0;
#X connect 3 0 6 0;
#X connect 4 0 7 0;
#X connect 6 0 4 0;
#X connect 6 1 0 0;
#X connect 6 2 1 0;
#X connect 7 0 10 0;
#X connect 8 0 2 0;
#X connect 9 0 10 1;
#X connect 11 0 6 0;
#X connect 11 0 12 0;
