#N canvas 78 53 875 919 12;
#N canvas 1 23 1920 1155 loadfile 0;
#N canvas 0 22 450 278 (subpatch) 0;
#X array sample1 86272 float 2;
#X coords 0 1 86272 -1 200 140 1 0 0;
#X restore 570 215 graph;
#X obj 570 181 soundfiler;
#N canvas 0 22 450 278 (subpatch) 0;
#X array sample2 85248 float 2;
#X coords 0 1 85248 -1 200 140 1 0 0;
#X restore 798 215 graph;
#X obj 798 181 soundfiler;
#N canvas 0 22 450 278 (subpatch) 0;
#X array sample3 77952 float 2;
#X coords 0 1 77952 -1 200 140 1 0 0;
#X restore 1020 215 graph;
#X obj 1020 181 soundfiler;
#N canvas 0 22 450 278 (subpatch) 0;
#X array sample4 74496 float 2;
#X coords 0 1 74496 -1 200 140 1 0 0;
#X restore 1240 215 graph;
#X obj 1240 181 soundfiler;
#N canvas 0 22 450 278 (subpatch) 0;
#X array sample5 82176 float 2;
#X coords 0 1 82176 -1 200 140 1 0 0;
#X restore 1460 215 graph;
#X obj 1460 181 soundfiler;
#N canvas 0 22 450 278 (subpatch) 0;
#X array sample6 85632 float 2;
#X coords 0 1 85632 -1 200 140 1 0 0;
#X restore 569 476 graph;
#X obj 569 442 soundfiler;
#N canvas 0 22 450 278 (subpatch) 0;
#X array sample7 79104 float 2;
#X coords 0 1 79104 -1 200 140 1 0 0;
#X restore 798 476 graph;
#X obj 798 442 soundfiler;
#N canvas 0 22 450 278 (subpatch) 0;
#X array sample8 86272 float 2;
#X coords 0 1 86272 -1 200 140 1 0 0;
#X restore 1020 476 graph;
#X obj 1020 442 soundfiler;
#N canvas 0 22 450 278 (subpatch) 0;
#X array sample9 85248 float 2;
#X coords 0 1 85248 -1 200 140 1 0 0;
#X restore 1240 476 graph;
#X obj 1240 442 soundfiler;
#N canvas 0 22 450 278 (subpatch) 0;
#X array sample10 77952 float 2;
#X coords 0 1 77952 -1 200 140 1 0 0;
#X restore 1460 476 graph;
#X obj 1460 442 soundfiler;
#N canvas 0 22 450 278 (subpatch) 0;
#X array sample11 74496 float 2;
#X coords 0 1 74496 -1 200 140 1 0 0;
#X restore 574 750 graph;
#X obj 574 716 soundfiler;
#N canvas 0 22 450 278 (subpatch) 0;
#X array sample12 82176 float 2;
#X coords 0 1 82176 -1 200 140 1 0 0;
#X restore 802 750 graph;
#X obj 802 716 soundfiler;
#N canvas 0 22 450 278 (subpatch) 0;
#X array sample13 85632 float 2;
#X coords 0 1 85632 -1 200 140 1 0 0;
#X restore 1024 750 graph;
#X obj 1024 716 soundfiler;
#N canvas 0 22 450 278 (subpatch) 0;
#X array sample14 79104 float 2;
#X coords 0 1 79104 -1 200 140 1 0 0;
#X restore 1244 750 graph;
#X obj 1244 716 soundfiler;
#N canvas 0 22 450 278 (subpatch) 0;
#X array sample15 86272 float 2;
#X coords 0 1 86272 -1 200 140 1 0 0;
#X restore 1464 750 graph;
#X obj 1464 716 soundfiler;
#N canvas 0 22 450 278 (subpatch) 0;
#X array sample16 85248 float 2;
#X coords 0 1 85248 -1 200 140 1 0 0;
#X restore 577 1008 graph;
#X obj 577 974 soundfiler;
#N canvas 0 22 450 278 (subpatch) 0;
#X array sample17 77952 float 2;
#X coords 0 1 77952 -1 200 140 1 0 0;
#X restore 807 1008 graph;
#X obj 807 974 soundfiler;
#X obj 35 64 loadbang;
#N canvas 0 22 450 278 (subpatch) 0;
#X array sampleBgm 117642 float 2;
#X coords 0 1 117642 -1 200 140 1 0 0;
#X restore 1222 1002 graph;
#X obj 1222 969 soundfiler;
#X msg 1221 935 read -resize sounds/bgm.wav sampleBgm;
#X msg 570 147 read -resize sounds/1.wav sample1;
#X msg 798 147 read -resize sounds/2.wav sample2;
#X msg 1020 147 read -resize sounds/3.wav sample3;
#X msg 1240 147 read -resize sounds/4.wav sample4;
#X msg 1460 147 read -resize sounds/5.wav sample5;
#X msg 569 408 read -resize sounds/6.wav sample6;
#X msg 798 408 read -resize sounds/7.wav sample7;
#X msg 1020 408 read -resize sounds/8.wav sample8;
#X msg 1240 408 read -resize sounds/9.wav sample9;
#X msg 1459 409 read -resize sounds/10.wav sample10;
#X msg 574 682 read -resize sounds/11.wav sample11;
#X msg 802 682 read -resize sounds/12.wav sample12;
#X msg 1024 682 read -resize sounds/13.wav sample13;
#X msg 1244 682 read -resize sounds/14.wav sample14;
#X msg 1464 682 read -resize sounds/15.wav sample15;
#X msg 577 940 read -resize sounds/16.wav sample16;
#X msg 807 940 read -resize sounds/17.wav sample17;
#X obj 37 22 bng 15 250 50 0 empty empty empty 17 7 0 10 -262144 -1
-1;
#X connect 34 0 53 0;
#X connect 34 0 54 0;
#X connect 34 0 38 0;
#X connect 34 0 39 0;
#X connect 34 0 40 0;
#X connect 34 0 41 0;
#X connect 34 0 42 0;
#X connect 34 0 43 0;
#X connect 34 0 44 0;
#X connect 34 0 45 0;
#X connect 34 0 46 0;
#X connect 34 0 47 0;
#X connect 34 0 48 0;
#X connect 34 0 49 0;
#X connect 34 0 50 0;
#X connect 34 0 51 0;
#X connect 34 0 52 0;
#X connect 34 0 37 0;
#X connect 37 0 36 0;
#X connect 38 0 1 0;
#X connect 39 0 3 0;
#X connect 40 0 5 0;
#X connect 41 0 7 0;
#X connect 42 0 9 0;
#X connect 43 0 11 0;
#X connect 44 0 13 0;
#X connect 45 0 15 0;
#X connect 46 0 17 0;
#X connect 47 0 19 0;
#X connect 48 0 21 0;
#X connect 49 0 23 0;
#X connect 50 0 25 0;
#X connect 51 0 27 0;
#X connect 52 0 29 0;
#X connect 53 0 31 0;
#X connect 54 0 33 0;
#X connect 55 0 34 0;
#X restore 16 81 pd loadfile;
#N canvas 225 107 450 300 receiveosc 0;
#X obj 23 153 unpack f;
#X obj 23 190 s chan1;
#X obj 23 73 dumpOSC 9001;
#X obj 23 115 OSCroute /sound;
#X obj 195 157 unpack f;
#X obj 196 118 OSCroute /bgm;
#X obj 195 194 s bgm;
#X connect 0 0 1 0;
#X connect 2 0 3 0;
#X connect 2 0 5 0;
#X connect 3 0 0 0;
#X connect 4 0 6 0;
#X connect 5 0 4 0;
#X restore 14 15 pd receiveosc;
#N canvas 1015 453 450 300 loadbangs 0;
#X obj 98 57 loadbang;
#X msg 101 141 \; pd dsp 1 2;
#X obj 210 142 bng 15 250 50 0 empty empty empty 17 7 0 10 -262144
-1 -1;
#X connect 0 0 1 0;
#X connect 0 0 2 0;
#X restore 14 50 pd loadbangs;
#X obj 127 221 bng 15 250 50 0 empty empty empty 17 7 0 10 -262144
-1 -1;
#X msg 127 249 1;
#X obj 164 220 bng 15 250 50 0 empty empty empty 17 7 0 10 -262144
-1 -1;
#X obj 200 220 bng 15 250 50 0 empty empty empty 17 7 0 10 -262144
-1 -1;
#X msg 164 248 2;
#X msg 200 248 3;
#X obj 267 228 bng 15 250 50 0 empty empty empty 17 7 0 10 -262144
-1 -1;
#X obj 304 227 bng 15 250 50 0 empty empty empty 17 7 0 10 -262144
-1 -1;
#X obj 340 227 bng 15 250 50 0 empty empty empty 17 7 0 10 -262144
-1 -1;
#X msg 267 256 4;
#X msg 304 255 5;
#X msg 340 255 6;
#X obj 129 333 bng 15 250 50 0 empty empty empty 17 7 0 10 -262144
-1 -1;
#X obj 166 332 bng 15 250 50 0 empty empty empty 17 7 0 10 -262144
-1 -1;
#X obj 202 332 bng 15 250 50 0 empty empty empty 17 7 0 10 -262144
-1 -1;
#X msg 129 361 9;
#X msg 166 360 10;
#X msg 202 360 11;
#X obj 262 335 bng 15 250 50 0 empty empty empty 17 7 0 10 -262144
-1 -1;
#X obj 299 334 bng 15 250 50 0 empty empty empty 17 7 0 10 -262144
-1 -1;
#X obj 335 334 bng 15 250 50 0 empty empty empty 17 7 0 10 -262144
-1 -1;
#X msg 262 363 12;
#X msg 299 362 13;
#X msg 335 362 14;
#X obj 414 336 bng 15 250 50 0 empty empty empty 17 7 0 10 -262144
-1 -1;
#X obj 451 335 bng 15 250 50 0 empty empty empty 17 7 0 10 -262144
-1 -1;
#X obj 487 335 bng 15 250 50 0 empty empty empty 17 7 0 10 -262144
-1 -1;
#X msg 414 364 15;
#X msg 451 363 16;
#X msg 487 363 17;
#X obj 413 224 bng 15 250 50 0 empty empty empty 17 7 0 10 -262144
-1 -1;
#X obj 450 223 bng 15 250 50 0 empty empty empty 17 7 0 10 -262144
-1 -1;
#X msg 413 252 7;
#X msg 450 251 8;
#X obj 414 293 sub2 7 8 5 6;
#X obj 126 289 sub3 1 2 3 1 2;
#X obj 265 290 sub3 4 5 6 3 4;
#X obj 127 395 sub3 9 10 11 7 8;
#X obj 260 397 sub3 12 13 14 9 10;
#X obj 412 398 sub3 15 16 17 11 12;
#X obj 184 674 bng 15 250 50 0 empty empty empty 17 7 0 10 -262144
-1 -1;
#X obj 185 705 tabplay~ sampleBgm;
#X obj 183 803 dac~ 1 2 3 4 5 6 7 8 9 10 11 12;
#X obj 185 745 *~ 1;
#X obj 351 619 vsl 15 128 0 1 0 1 empty empty empty 0 -9 0 10 -262144
-1 -1 1900 1;
#X obj 208 617 spigot;
#X obj 246 583 tgl 15 0 empty empty empty 17 7 0 10 -262144 -1 -1 0
1;
#X obj 246 548 r bgm;
#X obj 134 618 select 1;
#X text 124 506 BGM;
#X text 125 174 SE;
#X connect 3 0 4 0;
#X connect 4 0 38 0;
#X connect 5 0 7 0;
#X connect 6 0 8 0;
#X connect 7 0 38 0;
#X connect 8 0 38 0;
#X connect 9 0 12 0;
#X connect 10 0 13 0;
#X connect 11 0 14 0;
#X connect 12 0 39 0;
#X connect 13 0 39 0;
#X connect 14 0 39 0;
#X connect 15 0 18 0;
#X connect 16 0 19 0;
#X connect 17 0 20 0;
#X connect 18 0 40 0;
#X connect 19 0 40 0;
#X connect 20 0 40 0;
#X connect 21 0 24 0;
#X connect 22 0 25 0;
#X connect 23 0 26 0;
#X connect 24 0 41 0;
#X connect 25 0 41 0;
#X connect 26 0 41 0;
#X connect 27 0 30 0;
#X connect 28 0 31 0;
#X connect 29 0 32 0;
#X connect 30 0 42 0;
#X connect 31 0 42 0;
#X connect 32 0 42 0;
#X connect 33 0 35 0;
#X connect 34 0 36 0;
#X connect 35 0 37 0;
#X connect 36 0 37 0;
#X connect 43 0 44 0;
#X connect 44 0 46 0;
#X connect 44 1 48 0;
#X connect 46 0 45 0;
#X connect 46 0 45 1;
#X connect 46 0 45 2;
#X connect 46 0 45 3;
#X connect 46 0 45 4;
#X connect 46 0 45 5;
#X connect 46 0 45 6;
#X connect 46 0 45 7;
#X connect 46 0 45 8;
#X connect 46 0 45 9;
#X connect 46 0 45 10;
#X connect 47 0 46 1;
#X connect 48 0 43 0;
#X connect 49 0 48 1;
#X connect 50 0 49 0;
#X connect 50 0 51 0;
#X connect 51 0 43 0;
