#N canvas 0 22 1920 1155 12;
#X obj 188 309 bng 15 250 50 0 empty empty empty 17 7 0 10 -262144
-1 -1;
#X obj 315 309 bng 15 250 50 0 empty empty empty 17 7 0 10 -262144
-1 -1;
#X obj 476 358 bng 15 250 50 0 empty empty empty 17 7 0 10 -262144
-1 -1;
#X obj 601 357 bng 15 250 50 0 empty empty empty 17 7 0 10 -262144
-1 -1;
#X obj 727 355 bng 15 250 50 0 empty empty empty 17 7 0 10 -262144
-1 -1;
#X obj 476 387 tabplay~ sample4;
#X obj 601 386 tabplay~ sample5;
#X obj 727 384 tabplay~ sample6;
#X obj 896 355 bng 15 250 50 0 empty empty empty 17 7 0 10 -262144
-1 -1;
#X obj 897 381 tabplay~ sample7;
#X obj 1023 351 bng 15 250 50 0 empty empty empty 17 7 0 10 -262144
-1 -1;
#X obj 207 495 dac~ 1 2;
#X obj 623 450 dac~ 3 4;
#X obj 988 434 dac~ 5 6;
#X obj 264 1059 dac~ 7 8;
#X obj 99 952 bng 15 250 50 0 empty empty empty 17 7 0 10 -262144 -1
-1;
#X obj 226 956 bng 15 250 50 0 empty empty empty 17 7 0 10 -262144
-1 -1;
#X obj 352 954 bng 15 250 50 0 empty empty empty 17 7 0 10 -262144
-1 -1;
#X obj 490 950 bng 15 250 50 0 empty empty empty 17 7 0 10 -262144
-1 -1;
#X obj 623 954 bng 15 250 50 0 empty empty empty 17 7 0 10 -262144
-1 -1;
#X obj 60 269 select 1 2 3;
#X obj 477 308 select 4 5 6;
#X obj 497 1078 dac~ 9 10;
#X obj 765 957 bng 15 250 50 0 empty empty empty 17 7 0 10 -262144
-1 -1;
#X obj 909 946 bng 15 250 50 0 empty empty empty 17 7 0 10 -262144
-1 -1;
#X obj 1042 950 bng 15 250 50 0 empty empty empty 17 7 0 10 -262144
-1 -1;
#X obj 1184 953 bng 15 250 50 0 empty empty empty 17 7 0 10 -262144
-1 -1;
#X obj 916 1074 dac~ 11 12;
#X obj 909 816 r chan1;
#X obj 188 372 *~ 0.5;
#X obj 486 822 r chan1;
#X obj 74 805 r chan1;
#X obj 899 233 r chan1;
#X obj 480 265 r chan1;
#X obj 60 235 r chan1;
#X obj 548 1028 *~ 0.5;
#X obj 632 419 *~ 0.5;
#X obj 264 1020 *~ 0.5;
#X obj 996 1014 *~ 0.5;
#X obj 897 291 select 7 8;
#N canvas 1 23 1920 1155 loadfile 0;
#N canvas 0 22 450 278 (subpatch) 0;
#X array sample1 86272 float 2;
#X coords 0 1 86272 -1 200 140 1 0 0;
#X restore 570 215 graph;
#X obj 570 181 soundfiler;
#N canvas 0 22 450 278 (subpatch) 0;
#X array sample2 85248 float 2;
#X coords 0 1 85248 -1 200 140 1 0 0;
#X restore 798 215 graph;
#X obj 798 181 soundfiler;
#X msg 798 147 read -resize 2.wav sample2;
#N canvas 0 22 450 278 (subpatch) 0;
#X array sample3 77952 float 2;
#X coords 0 1 77952 -1 200 140 1 0 0;
#X restore 1020 215 graph;
#X obj 1020 181 soundfiler;
#N canvas 0 22 450 278 (subpatch) 0;
#X array sample4 74496 float 2;
#X coords 0 1 74496 -1 200 140 1 0 0;
#X restore 1240 215 graph;
#X obj 1240 181 soundfiler;
#N canvas 0 22 450 278 (subpatch) 0;
#X array sample5 82176 float 2;
#X coords 0 1 82176 -1 200 140 1 0 0;
#X restore 1460 215 graph;
#X obj 1460 181 soundfiler;
#X msg 1020 147 read -resize 3.wav sample3;
#X msg 1240 147 read -resize 4.wav sample4;
#X msg 1460 147 read -resize 5.wav sample5;
#X msg 570 147 read -resize 1.wav sample1;
#N canvas 0 22 450 278 (subpatch) 0;
#X array sample6 85632 float 2;
#X coords 0 1 85632 -1 200 140 1 0 0;
#X restore 569 476 graph;
#X obj 569 442 soundfiler;
#N canvas 0 22 450 278 (subpatch) 0;
#X array sample7 79104 float 2;
#X coords 0 1 79104 -1 200 140 1 0 0;
#X restore 798 476 graph;
#X obj 798 442 soundfiler;
#N canvas 0 22 450 278 (subpatch) 0;
#X array sample8 86272 float 2;
#X coords 0 1 86272 -1 200 140 1 0 0;
#X restore 1020 476 graph;
#X obj 1020 442 soundfiler;
#N canvas 0 22 450 278 (subpatch) 0;
#X array sample9 85248 float 2;
#X coords 0 1 85248 -1 200 140 1 0 0;
#X restore 1240 476 graph;
#X obj 1240 442 soundfiler;
#N canvas 0 22 450 278 (subpatch) 0;
#X array sample10 77952 float 2;
#X coords 0 1 77952 -1 200 140 1 0 0;
#X restore 1460 476 graph;
#X obj 1460 442 soundfiler;
#N canvas 0 22 450 278 (subpatch) 0;
#X array sample11 74496 float 2;
#X coords 0 1 74496 -1 200 140 1 0 0;
#X restore 574 750 graph;
#X obj 574 716 soundfiler;
#N canvas 0 22 450 278 (subpatch) 0;
#X array sample12 82176 float 2;
#X coords 0 1 82176 -1 200 140 1 0 0;
#X restore 802 750 graph;
#X obj 802 716 soundfiler;
#N canvas 0 22 450 278 (subpatch) 0;
#X array sample13 85632 float 2;
#X coords 0 1 85632 -1 200 140 1 0 0;
#X restore 1024 750 graph;
#X obj 1024 716 soundfiler;
#N canvas 0 22 450 278 (subpatch) 0;
#X array sample14 79104 float 2;
#X coords 0 1 79104 -1 200 140 1 0 0;
#X restore 1244 750 graph;
#X obj 1244 716 soundfiler;
#N canvas 0 22 450 278 (subpatch) 0;
#X array sample15 86272 float 2;
#X coords 0 1 86272 -1 200 140 1 0 0;
#X restore 1464 750 graph;
#X obj 1464 716 soundfiler;
#X msg 569 408 read -resize 6.wav sample6;
#X msg 798 408 read -resize 7.wav sample7;
#X msg 1020 408 read -resize 8.wav sample8;
#X msg 1240 408 read -resize 9.wav sample9;
#X msg 1460 408 read -resize 10.wav sample10;
#X msg 574 682 read -resize 11.wav sample11;
#X msg 802 682 read -resize 12.wav sample12;
#X msg 1024 682 read -resize 13.wav sample13;
#X msg 1244 682 read -resize 14.wav sample14;
#X msg 1464 682 read -resize 15.wav sample15;
#N canvas 0 22 450 278 (subpatch) 0;
#X array sample16 85248 float 2;
#X coords 0 1 85248 -1 200 140 1 0 0;
#X restore 577 1008 graph;
#X obj 577 974 soundfiler;
#N canvas 0 22 450 278 (subpatch) 0;
#X array sample17 77952 float 2;
#X coords 0 1 77952 -1 200 140 1 0 0;
#X restore 807 1008 graph;
#X obj 807 974 soundfiler;
#X msg 577 940 read -resize 16.wav sample16;
#X msg 807 940 read -resize 17.wav sample17;
#X obj 22 24 loadbang;
#N canvas 0 22 450 278 (subpatch) 0;
#X array sampleL 117642 float 2;
#X coords 0 1 117642 -1 200 140 1 0 0;
#X restore 1027 1007 graph;
#X obj 1027 974 soundfiler;
#X msg 1027 940 read -resize long.wav sampleL;
#X connect 4 0 3 0;
#X connect 11 0 6 0;
#X connect 12 0 8 0;
#X connect 13 0 10 0;
#X connect 14 0 1 0;
#X connect 35 0 16 0;
#X connect 36 0 18 0;
#X connect 37 0 20 0;
#X connect 38 0 22 0;
#X connect 39 0 24 0;
#X connect 40 0 26 0;
#X connect 41 0 28 0;
#X connect 42 0 30 0;
#X connect 43 0 32 0;
#X connect 44 0 34 0;
#X connect 49 0 46 0;
#X connect 50 0 48 0;
#X connect 51 0 49 0;
#X connect 51 0 50 0;
#X connect 51 0 14 0;
#X connect 51 0 4 0;
#X connect 51 0 11 0;
#X connect 51 0 12 0;
#X connect 51 0 13 0;
#X connect 51 0 35 0;
#X connect 51 0 36 0;
#X connect 51 0 37 0;
#X connect 51 0 38 0;
#X connect 51 0 39 0;
#X connect 51 0 40 0;
#X connect 51 0 41 0;
#X connect 51 0 42 0;
#X connect 51 0 43 0;
#X connect 51 0 44 0;
#X connect 51 0 54 0;
#X connect 54 0 53 0;
#X restore 16 81 pd loadfile;
#N canvas 225 107 450 300 receiveosc 0;
#X obj 23 73 dumpOSC 9999;
#X obj 23 153 unpack f;
#X obj 23 115 OSCroute /chan1;
#X obj 23 190 s chan1;
#X connect 0 0 2 0;
#X connect 1 0 3 0;
#X connect 2 0 1 0;
#X restore 14 15 pd receiveosc;
#X obj 81 858 select 9 10 11;
#X obj 488 883 select 12 13 14;
#X obj 907 879 select 15 16 17;
#N canvas 1015 453 450 300 loadbangs 0;
#X obj 98 57 loadbang;
#X msg 101 141 \; pd dsp 1 2;
#X obj 210 142 bng 15 250 50 0 empty empty empty 17 7 0 10 -262144
-1 -1;
#X connect 0 0 1 0;
#X connect 0 0 2 0;
#X restore 14 50 pd loadbangs;
#X obj 1024 382 tabplay~ sample8;
#X obj 99 989 tabplay~ sample9;
#X obj 226 988 tabplay~ sample10;
#X obj 351 987 tabplay~ sample11;
#X obj 491 983 tabplay~ sample12;
#X obj 624 985 tabplay~ sample13;
#X obj 766 986 tabplay~ sample14;
#X obj 912 980 tabplay~ sample15;
#X obj 1042 981 tabplay~ sample16;
#X obj 1184 982 tabplay~ sample17;
#X floatatom 1594 459 10 0 0 0 - - -;
#X text 1672 458 number of bangs;
#X obj 1594 433 counter;
#X obj 1595 353 bng 15 250 50 0 empty empty empty 17 7 0 10 -262144
-1 -1;
#X obj 1764 532 bng 15 250 50 0 empty empty empty 17 7 0 10 -262144
-1 -1;
#X obj 1827 389 bng 15 250 50 0 empty empty empty 0 -6 0 8 -262144
-1 -1;
#X obj 1593 775 dac~ 1 2;
#X obj 1594 624 tabplay~ sampleL;
#X obj 1616 651 tabplay~ sampleL;
#X obj 1642 677 tabplay~ sampleL;
#X obj 1667 704 tabplay~ sampleL;
#X obj 1594 501 select 0 1 2 3;
#X obj 1593 741 *~ 0.5;
#X obj 61 311 bng 15 250 50 0 empty empty empty 17 7 0 10 -262144 -1
-1;
#X obj 61 339 piyo 1;
#X obj 188 337 piyo 2;
#X obj 315 335 piyo 3;
#X obj 333 515 sub1 1 2 3 1 2;
#X obj 333 449 bng 15 250 50 0 empty empty empty 17 7 0 10 -262144
-1 -1;
#X floatatom 333 475 5 0 0 0 - - -;
#X obj 379 449 bng 15 250 50 0 empty empty empty 17 7 0 10 -262144
-1 -1;
#X floatatom 378 476 5 0 0 0 - - -;
#X obj 422 450 bng 15 250 50 0 empty empty empty 17 7 0 10 -262144
-1 -1;
#X floatatom 422 476 5 0 0 0 - - -;
#X connect 0 0 71 0;
#X connect 1 0 72 0;
#X connect 2 0 5 0;
#X connect 3 0 6 0;
#X connect 4 0 7 0;
#X connect 5 0 12 0;
#X connect 6 0 36 0;
#X connect 7 0 12 1;
#X connect 8 0 9 0;
#X connect 9 0 13 0;
#X connect 10 0 46 0;
#X connect 15 0 47 0;
#X connect 16 0 48 0;
#X connect 17 0 49 0;
#X connect 18 0 50 0;
#X connect 19 0 51 0;
#X connect 20 0 69 0;
#X connect 20 1 0 0;
#X connect 20 2 1 0;
#X connect 21 0 2 0;
#X connect 21 1 3 0;
#X connect 21 2 4 0;
#X connect 23 0 52 0;
#X connect 24 0 53 0;
#X connect 25 0 54 0;
#X connect 26 0 55 0;
#X connect 28 0 44 0;
#X connect 29 0 11 0;
#X connect 29 0 11 1;
#X connect 30 0 43 0;
#X connect 31 0 42 0;
#X connect 32 0 39 0;
#X connect 33 0 21 0;
#X connect 34 0 20 0;
#X connect 35 0 22 0;
#X connect 35 0 22 1;
#X connect 36 0 12 0;
#X connect 36 0 12 1;
#X connect 37 0 14 0;
#X connect 37 0 14 1;
#X connect 38 0 27 0;
#X connect 38 0 27 1;
#X connect 39 0 8 0;
#X connect 39 1 10 0;
#X connect 42 0 15 0;
#X connect 42 1 16 0;
#X connect 42 2 17 0;
#X connect 43 0 18 0;
#X connect 43 1 19 0;
#X connect 43 2 23 0;
#X connect 44 0 24 0;
#X connect 44 1 25 0;
#X connect 44 2 26 0;
#X connect 46 0 13 1;
#X connect 47 0 14 0;
#X connect 48 0 37 0;
#X connect 49 0 14 1;
#X connect 50 0 22 0;
#X connect 51 0 35 0;
#X connect 52 0 22 1;
#X connect 53 0 27 0;
#X connect 54 0 38 0;
#X connect 55 0 27 1;
#X connect 56 0 67 0;
#X connect 58 0 56 0;
#X connect 59 0 58 0;
#X connect 60 0 61 0;
#X connect 61 0 58 3;
#X connect 63 0 68 0;
#X connect 64 0 68 0;
#X connect 65 0 68 0;
#X connect 66 0 68 0;
#X connect 67 0 63 0;
#X connect 67 1 64 0;
#X connect 67 2 65 0;
#X connect 67 3 66 0;
#X connect 67 4 60 0;
#X connect 68 0 62 0;
#X connect 69 0 70 0;
#X connect 70 0 11 0;
#X connect 71 0 29 0;
#X connect 72 0 11 1;
#X connect 74 0 75 0;
#X connect 75 0 73 0;
#X connect 76 0 77 0;
#X connect 77 0 73 0;
#X connect 78 0 79 0;
#X connect 79 0 73 0;
